<?xml version="1.0" encoding="UTF-8" standalone="no"?>
<!-- Created with Inkscape (http://www.inkscape.org/) -->

<svg
   version="1.1"
   id="svg2"
   width="512"
   height="512"
   viewBox="0 0 512 511.99999"
   sodipodi:docname="firefox.svg"
   inkscape:version="1.4 (86a8ad7, 2024-10-11)"
   xmlns:inkscape="http://www.inkscape.org/namespaces/inkscape"
   xmlns:sodipodi="http://sodipodi.sourceforge.net/DTD/sodipodi-0.dtd"
   xmlns="http://www.w3.org/2000/svg"
   xmlns:svg="http://www.w3.org/2000/svg">
  <defs
     id="defs6">
    <clipPath
       clipPathUnits="userSpaceOnUse"
       id="clipPath16">
      <path
         d="M 0,841.89 H 595.276 V 0 H 0 Z"
         id="path14" />
    </clipPath>
    <inkscape:path-effect
       effect="fill_between_many"
       method="originald"
       linkedpaths="#path78,0,1|"
       id="path-effect1" />
  </defs>
  <sodipodi:namedview
     id="namedview4"
     pagecolor="#ffffff"
     bordercolor="#000000"
     borderopacity="0.25"
     inkscape:showpageshadow="2"
     inkscape:pageopacity="0.0"
     inkscape:pagecheckerboard="0"
     inkscape:deskcolor="#d1d1d1"
     inkscape:zoom="2.3769531"
     inkscape:cx="256.21036"
     inkscape:cy="289.65654"
     inkscape:window-width="3840"
     inkscape:window-height="2054"
     inkscape:window-x="-11"
     inkscape:window-y="-11"
     inkscape:window-maximized="1"
     inkscape:current-layer="g12" />
  <g
     id="g8"
     inkscape:groupmode="layer"
     inkscape:label="胸前LOGO"
     transform="matrix(1.3333333,0,0,-1.3333333,0,1122.52)"
     style="display:inline">
    <g
       id="g12"
       clip-path="url(#clipPath16)"
       transform="matrix(3.9144539,0,0,3.9144539,-791.07593,-416.63027)">
      <g
         id="g76"
         transform="matrix(1.3509153,0,0,1.3509153,281.86112,313.26948)"
         style="display:inline;fill:#6495ed;fill-opacity:1"
         inkscape:label="g76">
        <path
           inkscape:original-d="M 0,0"
           inkscape:path-effect="#path-effect1"
           d="m 0,0 c -0.239,0 -0.473,-0.086 -0.658,-0.247 -7.509,-6.551 -13.198,-13.617 -14.685,-15.523 -2.438,0.439 -4.923,0.661 -7.398,0.661 -2.474,0 -4.959,-0.222 -7.396,-0.66 -1.484,1.909 -7.097,8.901 -14.687,15.522 -0.184,0.161 -0.419,0.247 -0.658,0.247 -0.092,0 -0.184,-0.013 -0.275,-0.039 -0.326,-0.093 -0.583,-0.346 -0.681,-0.671 -0.107,-0.352 -2.58,-8.787 -1.021,-28.366 -1.39,-1.235 -6.066,-5.637 -9.246,-11.587 -0.127,-0.236 -0.153,-0.513 -0.073,-0.769 0.08,-0.256 0.259,-0.469 0.498,-0.592 l 3.858,-1.98 -0.283,-2.788 c -0.054,-0.532 0.32,-1.012 0.849,-1.09 l 6.161,-0.909 -0.185,-1.11 c -0.09,-0.537 0.266,-1.046 0.8,-1.147 l 4.24,-0.805 c 0.95,-1.264 4.55,-5.156 14.464,-8.049 1.181,-0.345 2.404,-0.52 3.635,-0.52 1.232,0 2.455,0.175 3.635,0.52 9.915,2.893 13.514,6.785 14.465,8.049 l 4.24,0.805 c 0.534,0.101 0.889,0.61 0.8,1.147 l -0.185,1.11 6.161,0.909 c 0.529,0.078 0.903,0.558 0.848,1.09 l -0.283,2.788 3.858,1.98 c 0.239,0.123 0.418,0.336 0.498,0.592 0.08,0.256 0.054,0.533 -0.072,0.769 -3.18,5.95 -7.856,10.352 -9.246,11.587 C 3.536,-9.497 1.064,-1.062 0.957,-0.71 0.858,-0.385 0.602,-0.132 0.276,-0.039 0.185,-0.013 0.092,0 0,0 Z"
           id="path1"
           style="display:inline;fill:#ffffff;fill-opacity:1" />
        <path
           d="m 0,0 c -0.239,0 -0.473,-0.086 -0.658,-0.247 -7.509,-6.551 -13.198,-13.617 -14.685,-15.523 -2.438,0.439 -4.923,0.661 -7.398,0.661 -2.474,0 -4.959,-0.222 -7.396,-0.66 -1.484,1.909 -7.097,8.901 -14.687,15.522 -0.184,0.161 -0.419,0.247 -0.658,0.247 -0.092,0 -0.184,-0.013 -0.275,-0.039 -0.326,-0.093 -0.583,-0.346 -0.681,-0.671 -0.107,-0.352 -2.58,-8.787 -1.021,-28.366 -1.39,-1.235 -6.066,-5.637 -9.246,-11.587 -0.127,-0.236 -0.153,-0.513 -0.073,-0.769 0.08,-0.256 0.259,-0.469 0.498,-0.592 l 3.858,-1.98 -0.283,-2.788 c -0.054,-0.532 0.32,-1.012 0.849,-1.09 l 6.161,-0.909 -0.185,-1.11 c -0.09,-0.537 0.266,-1.046 0.8,-1.147 l 4.24,-0.805 c 0.95,-1.264 4.55,-5.156 14.464,-8.049 1.181,-0.345 2.404,-0.52 3.635,-0.52 1.232,0 2.455,0.175 3.635,0.52 9.915,2.893 13.514,6.785 14.465,8.049 l 4.24,0.805 c 0.534,0.101 0.889,0.61 0.8,1.147 l -0.185,1.11 6.161,0.909 c 0.529,0.078 0.903,0.558 0.848,1.09 l -0.283,2.788 3.858,1.98 c 0.239,0.123 0.418,0.336 0.498,0.592 0.08,0.256 0.054,0.533 -0.072,0.769 -3.18,5.95 -7.856,10.352 -9.246,11.587 C 3.536,-9.497 1.064,-1.062 0.957,-0.71 0.858,-0.385 0.602,-0.132 0.276,-0.039 0.185,-0.013 0.092,0 0,0 m 0,-1 c 0,0 2.585,-8.52 0.94,-28.499 0,0 5.759,-4.819 9.402,-11.635 l -4.466,-2.292 0.353,-3.467 -7.169,-1.057 0.352,-2.116 -4.642,-0.881 c 0,0 -2.666,-4.642 -14.156,-7.995 -1.095,-0.32 -2.225,-0.48 -3.355,-0.48 -1.13,0 -2.26,0.16 -3.355,0.48 -11.489,3.353 -14.156,7.995 -14.156,7.995 l -4.642,0.881 0.353,2.116 -7.169,1.057 0.352,3.467 -4.465,2.292 c 3.643,6.816 9.401,11.635 9.401,11.635 -1.645,19.979 0.941,28.499 0.941,28.499 8.755,-7.639 14.925,-15.866 14.925,-15.866 v 0 c 2.581,0.505 5.198,0.757 7.815,0.757 2.618,0 5.235,-0.252 7.815,-0.757 0,0 6.17,8.227 14.926,15.866"
           style="display:inline;fill:#6495ed;fill-opacity:1;fill-rule:nonzero;stroke:none"
           id="path78" />
      </g>
      <g
         id="g80"
         transform="matrix(1.3509153,0,0,1.3509153,281.3506,264.8493)"
         style="display:inline;fill:#3c3c3c;fill-opacity:1">
        <path
           d="m 0,0 -1.263,-4.598 c -0.186,-0.68 -0.619,-1.265 -1.214,-1.644 -0.939,-0.598 -2.489,-1.401 -4.239,-1.576 -1.889,-0.189 -3.498,0.65 -4.373,1.243 -0.441,0.299 -0.784,0.72 -0.995,1.209 l -0.154,0.353 c -0.246,0.566 -0.692,1.022 -1.253,1.28 l -7.502,3.443 c -0.87,0.399 -1.87,0.399 -2.74,0 l -7.502,-3.443 c -0.561,-0.258 -1.007,-0.714 -1.253,-1.28 l -0.153,-0.353 c -0.212,-0.489 -0.555,-0.91 -0.995,-1.209 -0.876,-0.593 -2.484,-1.432 -4.374,-1.243 -1.75,0.175 -3.299,0.978 -4.239,1.576 -0.595,0.379 -1.027,0.964 -1.214,1.644 L -44.726,0 c -0.248,0.903 0.016,1.866 0.682,2.524 4.088,4.033 11.382,5.785 16.372,6.536 3.52,0.529 7.098,0.529 10.619,0 C -12.064,8.309 -4.769,6.557 -0.682,2.524 -0.016,1.866 0.248,0.903 0,0 M 4.705,1.232 C 4.114,2.396 2.887,4.085 0.342,6.178 c -2.847,2.341 -7.263,3.787 -11.446,4.677 -7.419,1.578 -15.099,1.578 -22.517,0 -4.184,-0.89 -8.6,-2.336 -11.446,-4.677 -2.545,-2.093 -3.773,-3.782 -4.363,-4.946 -0.442,-0.87 -0.526,-1.877 -0.269,-2.817 l 1.582,-5.777 c 0.327,-1.192 1.338,-2.071 2.564,-2.229 l 12.821,-1.652 c 1.008,-0.129 2.014,0.249 2.687,1.009 l 4.09,4.626 c 0.513,0.58 1.24,0.925 2.014,0.956 l 0.336,0.014 c 0.828,0.033 1.657,0.033 2.485,0 l 0.335,-0.014 c 0.774,-0.031 1.502,-0.376 2.015,-0.956 l 4.09,-4.626 c 0.672,-0.76 1.679,-1.138 2.686,-1.009 l 12.822,1.652 c 1.226,0.158 2.236,1.037 2.563,2.229 l 1.582,5.777 c 0.258,0.94 0.173,1.947 -0.268,2.817"
           style="fill:#3c3c3c;fill-opacity:1;fill-rule:nonzero;stroke:none"
           id="path82" />
      </g>
      <g
         id="g84"
         transform="matrix(1.3509153,0,0,1.3509153,222.39882,280.93317)"
         style="display:inline;fill:#6495ed;fill-opacity:1">
        <path
           d="m 0,0 c 0,0 2.89,3.285 10.068,6.053 0,0 -4.867,6.996 -10.068,12.015 0,0 -1.521,-8.669 0,-18.068"
           style="fill:#6495ed;fill-opacity:1;fill-rule:nonzero;stroke:none"
           id="path86" />
      </g>
      <g
         id="g88"
         transform="matrix(1.3509153,0,0,1.3509153,279.88162,280.93317)"
         style="display:inline;fill:#6495ed;fill-opacity:1">
        <path
           d="m 0,0 c 0,0 -2.89,3.285 -10.068,6.053 0,0 4.867,6.996 10.068,12.015 0,0 1.521,-8.669 0,-18.068"
           style="fill:#6495ed;fill-opacity:1;fill-rule:nonzero;stroke:none"
           id="path90" />
      </g>
    </g>
  </g>
</svg>
